<svg width="162" height="19" viewBox="0 0 162 19" fill="currentColor" xmlns="http://www.w3.org/2000/svg">
<path d="M61.7424 17.7053V16.7345H62.4154C62.821 16.7345 63.1295 16.4605 63.3409 15.9125L63.7163 14.9417L61.0693 8.16562H62.2601L63.7357 12.1006C63.8306 12.3551 63.9234 12.6118 64.014 12.8707C64.1089 13.1253 64.1995 13.3798 64.2858 13.6344C64.3764 13.3798 64.467 13.1253 64.5576 12.8707C64.6526 12.6118 64.7475 12.3551 64.8424 12.1006L66.2921 8.16562H67.4635L64.3117 16.2685C64.1348 16.7258 63.8824 17.0796 63.5545 17.3299C63.2266 17.5801 62.8469 17.7053 62.4154 17.7053H61.7424Z" fill-opacity="0.32"/>
<path d="M57.7039 15.1294C57.2595 15.1294 56.8496 15.0345 56.4742 14.8447C56.0988 14.6505 55.7882 14.3571 55.5422 13.9645H55.5293V15H54.4549V5.3568H55.5552V9.17524H55.5681C55.7882 8.79124 56.088 8.50648 56.4677 8.32095C56.8474 8.1311 57.2595 8.03618 57.7039 8.03618C58.2993 8.03618 58.8192 8.18504 59.2636 8.48275C59.708 8.78045 60.0532 9.19682 60.2991 9.73183C60.545 10.2625 60.668 10.8795 60.668 11.5828C60.668 12.2818 60.545 12.8988 60.2991 13.4338C60.0532 13.9645 59.708 14.3808 59.2636 14.6829C58.8192 14.9806 58.2993 15.1294 57.7039 15.1294ZM57.5356 14.1392C58.1267 14.1392 58.6099 13.9235 58.9853 13.492C59.365 13.0563 59.5548 12.4198 59.5548 11.5828C59.5548 10.7458 59.365 10.1094 58.9853 9.67358C58.6099 9.23781 58.1267 9.01992 57.5356 9.01992C56.9013 9.01992 56.3965 9.25506 56.0212 9.72536C55.6501 10.1913 55.4646 10.8105 55.4646 11.5828C55.4646 12.3551 55.6501 12.9743 56.0212 13.4403C56.3965 13.9062 56.9013 14.1392 57.5356 14.1392Z" fill-opacity="0.32"/>
<path d="M46.2615 15.1294C45.6704 15.1294 45.1504 14.9806 44.7017 14.6829C44.2573 14.3808 43.9121 13.9645 43.6662 13.4338C43.4203 12.8988 43.2973 12.2818 43.2973 11.5828C43.2973 10.8795 43.4203 10.2625 43.6662 9.73183C43.9121 9.19682 44.2573 8.78045 44.7017 8.48275C45.1504 8.18504 45.6704 8.03618 46.2615 8.03618C46.7059 8.03618 47.1179 8.1311 47.4976 8.32095C47.8773 8.50648 48.1772 8.79124 48.3972 9.17524H48.4101V5.3568H49.5104V15H48.436V13.9645H48.4231C48.1772 14.3571 47.8665 14.6505 47.4911 14.8447C47.1158 15.0345 46.7059 15.1294 46.2615 15.1294ZM46.4297 14.1392C47.064 14.1392 47.5666 13.9062 47.9377 13.4403C48.3131 12.9743 48.5008 12.3551 48.5008 11.5828C48.5008 10.8105 48.3131 10.1913 47.9377 9.72536C47.5666 9.25506 47.064 9.01992 46.4297 9.01992C45.8386 9.01992 45.3532 9.23781 44.9735 9.67358C44.5982 10.1094 44.4105 10.7458 44.4105 11.5828C44.4105 12.4198 44.5982 13.0563 44.9735 13.492C45.3532 13.9235 45.8386 14.1392 46.4297 14.1392Z" fill-opacity="0.32"/>
<path d="M39.3624 15.1553C38.6936 15.1553 38.1219 15.0022 37.6473 14.6958C37.177 14.3895 36.8167 13.9688 36.5665 13.4338C36.3162 12.8945 36.1911 12.2818 36.1911 11.5958C36.1911 10.9011 36.3227 10.2841 36.5859 9.74477C36.8491 9.20545 37.2137 8.78261 37.6797 8.47627C38.1456 8.16562 38.6807 8.01029 39.2847 8.01029C39.919 8.01029 40.4691 8.1613 40.935 8.46333C41.401 8.76535 41.7591 9.18603 42.0094 9.72536C42.264 10.2647 42.3912 10.8882 42.3912 11.5958V11.8999H37.2784C37.3043 12.5687 37.4963 13.1123 37.8544 13.5309C38.2125 13.9494 38.7152 14.1586 39.3624 14.1586C39.8499 14.1586 40.2469 14.0465 40.5532 13.8221C40.8639 13.5977 41.071 13.3087 41.1745 12.9549H42.2747C42.1884 13.3906 42.0094 13.7746 41.7376 14.1069C41.4657 14.4348 41.1249 14.6915 40.715 14.877C40.3094 15.0626 39.8585 15.1553 39.3624 15.1553ZM37.2913 10.955H41.291C41.2306 10.3553 41.0213 9.87853 40.6632 9.52473C40.3051 9.17093 39.8456 8.99403 39.2847 8.99403C38.7238 8.99403 38.2665 9.17093 37.9127 9.52473C37.5589 9.87853 37.3517 10.3553 37.2913 10.955Z" fill-opacity="0.32"/>
<path d="M32.3986 15V8.16562H33.447V9.23996H33.4729C33.598 8.88616 33.7965 8.6014 34.0683 8.38567C34.3401 8.16993 34.6896 8.06207 35.1168 8.06207C35.216 8.06207 35.3066 8.06638 35.3886 8.07501C35.4749 8.08364 35.5396 8.09227 35.5827 8.1009V9.20113C35.5396 9.18819 35.4555 9.17309 35.3303 9.15583C35.2095 9.13425 35.0693 9.12347 34.9097 9.12347C34.53 9.12347 34.1999 9.25722 33.9195 9.52473C33.639 9.79224 33.4988 10.2151 33.4988 10.7932V15H32.3986Z" fill-opacity="0.32"/>
<path d="M28.1141 15.1553C27.4454 15.1553 26.8737 15.0022 26.3991 14.6958C25.9288 14.3895 25.5685 13.9688 25.3182 13.4338C25.068 12.8945 24.9429 12.2818 24.9429 11.5958C24.9429 10.9011 25.0745 10.2841 25.3377 9.74477C25.6009 9.20545 25.9654 8.78261 26.4314 8.47627C26.8974 8.16562 27.4324 8.01029 28.0365 8.01029C28.6707 8.01029 29.2208 8.1613 29.6868 8.46333C30.1528 8.76535 30.5109 9.18603 30.7612 9.72536C31.0157 10.2647 31.143 10.8882 31.143 11.5958V11.8999H26.0302C26.056 12.5687 26.2481 13.1123 26.6062 13.5309C26.9643 13.9494 27.4669 14.1586 28.1141 14.1586C28.6017 14.1586 28.9986 14.0465 29.305 13.8221C29.6156 13.5977 29.8227 13.3087 29.9263 12.9549H31.0265C30.9402 13.3906 30.7612 13.7746 30.4893 14.1069C30.2175 14.4348 29.8767 14.6915 29.4668 14.877C29.0612 15.0626 28.6103 15.1553 28.1141 15.1553ZM26.0431 10.955H30.0428C29.9824 10.3553 29.7731 9.87853 29.415 9.52473C29.0569 9.17093 28.5974 8.99403 28.0365 8.99403C27.4756 8.99403 27.0182 9.17093 26.6644 9.52473C26.3106 9.87853 26.1035 10.3553 26.0431 10.955Z" fill-opacity="0.32"/>
<path d="M17.073 15L14.9502 8.16562H16.1022L16.963 11.1686C17.0838 11.5828 17.1981 12.0056 17.306 12.4371C17.4182 12.8686 17.5303 13.2957 17.6425 13.7185C17.7547 13.2957 17.8669 12.8686 17.9791 12.4371C18.0912 12.0056 18.2077 11.5828 18.3285 11.1686L19.1958 8.16562H20.2831L21.1374 11.1686C21.2539 11.5785 21.366 11.997 21.4739 12.4242C21.5861 12.8513 21.6983 13.272 21.8105 13.6862C21.9226 13.272 22.0348 12.8513 22.147 12.4242C22.2592 11.997 22.3757 11.5785 22.4965 11.1686L23.3767 8.16562H24.5287L22.4059 15H21.2539L20.3543 11.8935C20.2464 11.5181 20.1428 11.1362 20.0436 10.7479C19.9444 10.3553 19.843 9.96698 19.7394 9.58298C19.6402 9.96698 19.5388 10.3553 19.4352 10.7479C19.3317 11.1362 19.226 11.5181 19.1181 11.8935L18.1991 15H17.073Z" fill-opacity="0.32"/>
<path d="M11.3647 15.1553C10.7348 15.1553 10.1804 15.0043 9.70144 14.7023C9.22684 14.3959 8.85578 13.9753 8.58827 13.4403C8.32508 12.9052 8.19348 12.2904 8.19348 11.5958C8.19348 10.8968 8.32508 10.2776 8.58827 9.7383C8.85578 9.19897 9.22684 8.77614 9.70144 8.4698C10.1804 8.16346 10.7348 8.01029 11.3647 8.01029C11.999 8.01029 12.5534 8.16346 13.028 8.4698C13.5026 8.77614 13.8715 9.19897 14.1347 9.7383C14.4022 10.2776 14.536 10.8968 14.536 11.5958C14.536 12.2904 14.4022 12.9052 14.1347 13.4403C13.8715 13.9753 13.5026 14.3959 13.028 14.7023C12.5534 15.0043 11.999 15.1553 11.3647 15.1553ZM11.3647 14.1586C12.0119 14.1586 12.5167 13.9256 12.8792 13.4597C13.2416 12.9894 13.4228 12.3681 13.4228 11.5958C13.4228 10.8148 13.2394 10.1892 12.8727 9.71889C12.5103 9.24428 12.0076 9.00697 11.3647 9.00697C10.7219 9.00697 10.217 9.24212 9.8503 9.71241C9.48787 10.1827 9.30666 10.8105 9.30666 11.5958C9.30666 12.3724 9.48787 12.9937 9.8503 13.4597C10.2127 13.9256 10.7175 14.1586 11.3647 14.1586Z" fill-opacity="0.32"/>
<path d="M0.957848 15V5.3568H4.41387C5.41917 5.3568 6.21522 5.61999 6.80201 6.14637C7.39312 6.66844 7.68867 7.38036 7.68867 8.28212C7.68867 8.88185 7.5506 9.40176 7.27447 9.84185C7.00264 10.2776 6.61648 10.6163 6.11599 10.8579C5.61981 11.0953 5.03517 11.2139 4.36209 11.2139H2.1228V15H0.957848ZM2.1228 10.1784H4.37503C5.0438 10.1784 5.57019 10.0101 5.95419 9.67358C6.34251 9.33273 6.53666 8.8689 6.53666 8.28212C6.53666 7.69533 6.34251 7.23366 5.95419 6.89712C5.57019 6.56058 5.0438 6.39231 4.37503 6.39231H2.1228V10.1784Z" fill-opacity="0.32"/>
<path d="M93.3009 6.09788L85.775 1.16339V3.92229L90.6029 7.05955L90.0349 8.85678H85.775V11.1427H90.0349L90.6029 12.94L85.775 16.0772V18.8361L93.3009 13.9174L92.0702 10.0076L93.3009 6.09788Z" fill-opacity="0.64"/>
<path d="M79.2274 11.1427H83.4715V8.85678H79.2116L78.6594 7.05955L83.4715 3.92229V1.16339L75.9456 6.09788L77.1763 10.0076L75.9456 13.9174L83.4873 18.8361V16.0772L78.6594 12.94L79.2274 11.1427Z" fill-opacity="0.64"/>
<path d="M108.272 6.02346V7.56849H101.152V9.14945H107.202V10.6945H101.152V12.4311H108.272V13.9762H99.3253V6.02346H108.272Z" fill-opacity="0.64"/>
<path d="M109.281 13.9762L113.372 9.95191L109.397 6.02346H111.912L114.716 8.862L117.405 6.02346H119.757L115.794 9.95191L119.885 13.9762H117.347L114.716 11.0538L111.715 13.9762H109.281Z" fill-opacity="0.64"/>
<path d="M124.791 6.02346C128.106 6.02346 130.099 7.68316 130.099 9.99982C130.099 12.3165 128.106 13.9762 124.791 13.9762C121.477 13.9762 119.495 12.3165 119.495 9.99982C119.495 7.68316 121.477 6.02346 124.791 6.02346ZM124.791 7.51027C122.798 7.51027 121.329 8.513 121.329 9.99982C121.329 11.4866 122.798 12.4894 124.791 12.4894C126.796 12.4894 128.265 11.4866 128.265 9.99982C128.265 8.513 126.796 7.51027 124.791 7.51027Z" fill-opacity="0.64"/>
<path d="M136.705 6.02346C139.359 6.02346 140.959 7.49663 140.959 9.98784C140.959 12.503 139.371 13.9762 136.728 13.9762H131.35V6.02346H136.705ZM139.081 9.98784C139.081 8.43083 138.154 7.56849 136.473 7.56849H133.169V12.4311H136.473C138.154 12.4311 139.081 11.5568 139.081 9.98784Z" fill-opacity="0.64"/>
<path d="M146.978 13.9762C144.182 13.9762 142.063 12.7075 142.063 10.3698V6.02346H143.891V10.1936C143.891 11.6385 145.394 12.3081 146.978 12.3081C148.573 12.3081 150.076 11.6503 150.076 10.1936V6.02346H151.893V10.3698C151.893 12.7075 149.785 13.9762 146.978 13.9762Z" fill-opacity="0.64"/>
<path d="M157.013 13.9762C155.511 13.9762 153.892 13.6996 152.742 13.1809L153.34 11.7056C154.373 12.1782 155.792 12.4778 157.071 12.4778C158.538 12.4778 159.91 12.1666 159.91 11.6134C159.91 11.21 159.476 11.0371 158.573 10.8988L156.015 10.6222C154.044 10.3571 153.082 9.6771 153.082 8.47843C153.082 6.93399 154.713 6.02346 157.106 6.02346C158.55 6.02346 160.532 6.28855 161.553 6.74957L160.955 8.15571C159.946 7.74078 158.233 7.53332 157.024 7.53332C155.781 7.53332 154.959 7.82146 154.959 8.35164C154.959 8.72047 155.37 8.90488 156.426 9.05471L158.913 9.33133C160.814 9.59642 161.799 10.2419 161.799 11.4982C161.799 13.0887 159.711 13.9762 157.013 13.9762Z" fill-opacity="0.64"/>
</svg>
