<svg width="36" height="36" viewBox="0 0 36 36" fill="currentColor" xmlns="http://www.w3.org/2000/svg">
<mask id="mask0_1035_136" style="mask-type:alpha" maskUnits="userSpaceOnUse" x="0" y="0" width="36" height="36">
<path d="M19.8001 18.2621C19.8001 19.85 21.0872 21.1379 22.6759 21.1379C24.2639 21.1379 25.5518 19.85 25.5518 18.2621C25.5518 16.6741 24.2639 15.3862 22.6759 15.3862C21.088 15.3862 19.8001 16.6741 19.8001 18.2621Z" fill-opacity="0.04"/>
<path fill-rule="evenodd" clip-rule="evenodd" d="M36 18C36 27.9411 27.9411 36 18 36C8.05887 36 0 27.9411 0 18C0 8.05888 8.05887 0 18 0C27.9411 0 36 8.05888 36 18ZM15.5081 18.23C15.4788 18.2621 15.4788 18.3105 15.5081 18.3426L15.5095 18.3419C16.2469 19.1469 16.9861 19.9512 17.7262 20.7565L17.729 20.7596L17.7436 20.7754L17.7461 20.7781L17.7506 20.783C18.4394 21.5324 19.1289 22.2827 19.8186 23.0352C19.8464 23.0651 19.8258 23.1143 19.7844 23.115C19.7356 23.1164 19.69 23.1164 19.6771 23.1164L19.3736 23.1166C18.4583 23.1174 17.6166 23.1181 16.6833 23.1136C16.6292 23.1129 16.5615 23.073 16.523 23.0309C15.9828 22.4428 15.4453 21.8526 14.9077 21.2622L14.4582 20.7687C14.339 20.6377 14.219 20.507 14.0941 20.371L14.0905 20.3671L14.0868 20.3631C14.0102 20.2796 13.9316 20.194 13.8503 20.1052L13.8397 20.1221L13.8277 20.1419C13.8143 20.1643 13.8032 20.1828 13.789 20.1985L13.09 20.9677C12.4747 21.6448 11.8594 22.3218 11.2452 22.9996C11.1768 23.0751 11.1112 23.1207 10.9994 23.1207C10.0058 23.115 9.02795 23.1107 8.03441 23.1107H8.01517C7.95458 23.1107 7.92322 23.0388 7.96314 22.9939L7.99483 22.9586L7.99551 22.9578L7.99624 22.957C8.02776 22.9218 8.05761 22.8885 8.08786 22.8556L8.81624 22.0609L8.81882 22.0581L8.81986 22.0569C9.9399 20.8349 11.0599 19.6128 12.1818 18.3932C12.2595 18.3091 12.2559 18.2599 12.1818 18.1787C11.3518 17.269 10.5239 16.3572 9.69588 15.4453L8.93743 14.6101C8.77499 14.4314 8.61274 14.2526 8.44773 14.0707C8.29345 13.9006 8.13676 13.7279 7.97525 13.5502C7.92608 13.4961 7.96385 13.4098 8.03655 13.4098L8.71967 13.41C9.46314 13.4104 10.2065 13.4108 10.9495 13.407C11.0628 13.407 11.1355 13.4448 11.2096 13.5267C11.6974 14.0676 12.1867 14.6071 12.6761 15.1468L12.6785 15.1495L12.6794 15.1504L12.6813 15.1525C13.0373 15.5452 13.394 15.9385 13.7498 16.332C13.7626 16.3463 13.7733 16.3627 13.7833 16.3805C13.8096 16.4289 13.8773 16.4354 13.9158 16.3954C13.9401 16.3705 13.9572 16.3527 13.9736 16.3341L14.3646 15.9044L14.3665 15.9023C15.0936 15.1032 15.8206 14.3041 16.5508 13.5075C16.5964 13.4576 16.6798 13.4148 16.7461 13.4148C17.7446 13.4091 19.4117 13.4134 19.6084 13.4162C19.7117 13.4177 19.7645 13.541 19.6953 13.6172L15.5081 18.23ZM22.9867 13.4113C23.7037 13.4141 24.3865 13.5724 25.035 13.881C26.9751 14.8025 28.0969 16.935 27.742 19.0276C27.3371 21.4159 25.3565 23.1022 22.9346 23.1172C22.1136 23.1222 21.7679 23.12 20.9689 23.1143C20.8713 23.1136 20.7366 23.0545 20.6703 22.9825C19.6485 21.873 18.6303 20.7612 17.6119 19.6491L17.6071 19.6439L16.9313 18.9058C16.7706 18.7301 16.6086 18.553 16.4438 18.3733C16.3989 18.3241 16.3989 18.2478 16.4438 18.1987L16.488 18.1502L16.4892 18.149C16.5466 18.0862 16.6012 18.0263 16.6555 17.9663L17.6283 16.8949C18.6286 15.793 19.6288 14.6913 20.6311 13.5916C20.7202 13.494 20.9012 13.4134 21.0338 13.4127C21.8042 13.4084 22.1706 13.4077 22.9867 13.4113Z" fill-opacity="0.04"/>
</mask>
<g mask="url(#mask0_1035_136)">
<path d="M18 36C27.9411 36 36 27.9411 36 18C36 8.05887 27.9411 0 18 0C8.05887 0 0 8.05887 0 18C0 27.9411 8.05887 36 18 36Z"/>
</g>
<mask id="mask1_1035_136" style="mask-type:alpha" maskUnits="userSpaceOnUse" x="2" y="25" width="32" height="12">
<path opacity="0.3" d="M31.4259 25.7531L33.5911 27.0037C30.4785 32.3829 24.662 36.0019 18.0002 36.0019C11.339 36.0019 5.52292 32.3836 2.41016 27.0052L4.57561 25.755C7.25608 30.3863 12.2643 33.5019 18.0002 33.5019C23.7369 33.5019 28.7457 30.3854 31.4259 25.7531Z" fill="url(#paint0_linear_1035_136)"/>
</mask>
<g mask="url(#mask1_1035_136)">
<path d="M31.4259 25.7531L33.5911 27.0037C30.4785 32.3829 24.662 36.0019 18.0002 36.0019C11.339 36.0019 5.52292 32.3836 2.41016 27.0052L4.57561 25.755C7.25608 30.3863 12.2643 33.5019 18.0002 33.5019C23.7369 33.5019 28.7457 30.3854 31.4259 25.7531Z"/>
</g>
<mask id="mask2_1035_136" style="mask-type:alpha" maskUnits="userSpaceOnUse" x="18" y="0" width="18" height="28">
<path opacity="0.5" d="M18 0C27.9406 -6.3385e-09 35.9995 8.05888 35.9995 18C35.9995 21.2791 35.1227 24.3535 33.5907 27.0014L31.4255 25.7507C32.7446 23.4707 33.4995 20.8235 33.4995 18C33.4995 9.43976 26.5602 2.50027 18 2.5V0Z" fill="url(#paint1_linear_1035_136)"/>
</mask>
<g mask="url(#mask2_1035_136)">
<path d="M18 0C27.9406 -6.3385e-09 35.9995 8.05888 35.9995 18C35.9995 21.2791 35.1227 24.3535 33.5907 27.0014L31.4255 25.7507C32.7446 23.4707 33.4995 20.8235 33.4995 18C33.4995 9.43976 26.5602 2.50027 18 2.5V0Z"/>
</g>
<mask id="mask3_1035_136" style="mask-type:alpha" maskUnits="userSpaceOnUse" x="0" y="0" width="18" height="28">
<path opacity="0.15" d="M17.9995 0V2.4995L17.7437 2.50208C9.30151 2.63896 2.5 9.5252 2.5 18C2.5 20.8239 3.25518 23.4715 4.57459 25.7517L2.40943 27.0024C0.877064 24.3543 0 21.2796 0 18C0 8.05905 8.05862 0.000270426 17.9995 0Z" fill="url(#paint2_linear_1035_136)"/>
</mask>
<g mask="url(#mask3_1035_136)">
<path d="M17.9995 0V2.4995L17.7437 2.50208C9.30151 2.63896 2.5 9.5252 2.5 18C2.5 20.8239 3.25518 23.4715 4.57459 25.7517L2.40943 27.0024C0.877064 24.3543 0 21.2796 0 18C0 8.05905 8.05862 0.000270426 17.9995 0Z"/>
</g>
<path d="M25.035 13.881C24.3865 13.5724 23.7037 13.4141 22.9867 13.4113C22.1706 13.4077 21.8042 13.4084 21.0338 13.4127C20.9012 13.4134 20.7202 13.494 20.6311 13.5916C19.304 15.0477 17.9805 16.5074 16.6555 17.9663C16.5871 18.0419 16.518 18.1174 16.4438 18.1987C16.3989 18.2478 16.3989 18.3241 16.4438 18.3733C16.7482 18.7054 17.0432 19.0283 17.3383 19.3504C18.448 20.5621 19.557 21.7737 20.6703 22.9825C20.7366 23.0545 20.8713 23.1136 20.9689 23.1143C21.7679 23.12 22.1136 23.1222 22.9346 23.1172C25.3565 23.1022 27.3371 21.4159 27.742 19.0276C28.0969 16.935 26.9751 14.8025 25.035 13.881ZM22.6759 21.1379C21.0872 21.1379 19.8001 19.85 19.8001 18.2621C19.8001 16.6741 21.088 15.3862 22.6759 15.3862C24.2639 15.3862 25.5518 16.6741 25.5518 18.2621C25.5518 19.85 24.2639 21.1379 22.6759 21.1379Z"/>
<path d="M15.5081 18.3426C15.4788 18.3105 15.4788 18.2621 15.5081 18.23C16.9029 16.6934 18.2913 15.1639 19.6953 13.6172C19.7645 13.541 19.7117 13.4177 19.6084 13.4162C19.4117 13.4134 17.7446 13.4091 16.7461 13.4148C16.6798 13.4148 16.5964 13.4576 16.5508 13.5075C15.6891 14.4476 14.8317 15.3912 13.9736 16.3341C13.9572 16.3527 13.9401 16.3705 13.9158 16.3954C13.8773 16.4354 13.8096 16.4289 13.7833 16.3805C13.7733 16.3627 13.7626 16.3463 13.7498 16.332C12.903 15.3955 12.0542 14.4632 11.2096 13.5267C11.1355 13.4448 11.0628 13.407 10.9495 13.407C9.97944 13.412 9.00871 13.4098 8.03797 13.4098H8.03655C7.96385 13.4098 7.92608 13.4961 7.97525 13.5502C8.30952 13.918 8.62312 14.2644 8.93743 14.6101C10.0186 15.8003 11.0984 16.9913 12.1818 18.1787C12.2559 18.2599 12.2595 18.3091 12.1818 18.3932C10.8155 19.8785 9.45202 21.3674 8.08786 22.8556C8.04724 22.8998 8.00733 22.9447 7.96314 22.9939C7.92322 23.0388 7.95458 23.1107 8.01517 23.1107C8.02158 23.1107 8.02799 23.1107 8.03441 23.1107C9.02795 23.1107 10.0058 23.115 10.9994 23.1207C11.1112 23.1207 11.1768 23.0751 11.2452 22.9996C12.092 22.0652 12.9408 21.1322 13.789 20.1985C13.8103 20.175 13.8246 20.1451 13.8503 20.1052C14.0669 20.3418 14.2636 20.5549 14.4582 20.7687C15.146 21.5235 15.8323 22.279 16.523 23.0309C16.5615 23.073 16.6292 23.1129 16.6833 23.1136C17.7182 23.1186 18.6405 23.1172 19.6754 23.1164C19.6853 23.1164 19.7331 23.1165 19.7844 23.115C19.8258 23.1143 19.8464 23.0651 19.8186 23.0352C18.3796 21.4651 16.9413 19.9049 15.5095 18.3419L15.5081 18.3426Z"/>
<defs>
<linearGradient id="paint0_linear_1035_136" x1="32.4001" y1="26.5675" x2="3.72427" y2="26.8157" gradientUnits="userSpaceOnUse">
<stop/>
<stop offset="1" stop-opacity="0"/>
</linearGradient>
<linearGradient id="paint1_linear_1035_136" x1="18.1237" y1="0.62069" x2="33.0733" y2="25.6649" gradientUnits="userSpaceOnUse">
<stop/>
<stop offset="1" stop-opacity="0"/>
</linearGradient>
<linearGradient id="paint2_linear_1035_136" x1="3.22759" y1="27.0621" x2="17.7316" y2="1.03684" gradientUnits="userSpaceOnUse">
<stop/>
<stop offset="1" stop-opacity="0"/>
</linearGradient>
</defs>
</svg>
